{"asset":{"version":"2.0","generator":"THREE.GLTFExporter"},"scenes":[{"name":"AuxScene","nodes":[0]}],"scene":0,"nodes":[{"mesh":0}],"bufferViews":[{"buffer":0,"byteOffset":0,"byteLength":19044,"target":34962,"byteStride":12},{"buffer":0,"byteOffset":19044,"byteLength":19044,"target":34962,"byteStride":12}],"buffers":[{"byteLength":38088,"uri":"data:application/octet-stream;base64,"}],"accessors":[{"bufferView":0,"componentType":5126,"count":1587,"max":[18.213294982910156,50.87299728393555,15.153329849243164],"min":[-10.48670482635498,0.07299800217151642,-23.846670150756836],"type":"VEC3"},{"bufferView":1,"componentType":5126,"count":1587,"max":[0.9370425939559937,1,0.974388599395752],"min":[-0.9918816089630127,0.07629808038473129,-0.9335644245147705],"type":"VEC3"}],"materials":[{"pbrMetallicRoughness":{"baseColorFactor":[0.5019607843137255,0.5019607843137255,0.5019607843137255,1],"metallicFactor":0,"roughnessFactor":1}}],"meshes":[{"primitives":[{"mode":4,"attributes":{"POSITION":0,"NORMAL":1},"material":0}]}]}